<?xml version="1.0"?>
<svg version="1.1" xmlns="http://www.w3.org/2000/svg" width="51px" height="36px" style=""><path fill="#ffffff" d="M17.832,30.36l0,2.04l-7.632,0l0-2.04l1.8-0.648l-0.576-1.752l-5.328,0l-0.6,1.728l1.872,0.672l0,2.04l-7.248,0l0-2.04l1.752-0.672l5.28-14.136l3.84-0.072l5.16,14.208z M10.632,25.392l-1.8-5.688l-1.896,5.688l3.696,0z M27.58824,21.48l0-1.92l6.288-0.12l0,2.04l-1.368,0.312l-3.864,10.608l-3.96,0l-3.792-10.536l-1.152-0.384l0-1.92l6.288-0.12l0,2.04l-1.344,0.24l2.184,7.08l2.112-7.008z"/><path fill="#ffffff" d="M35.64,27.6l0-1.952c3.424-2.768,5.392-4.4,5.392-5.968c0-0.976-0.736-1.6-1.872-1.6c-0.848,0-1.488,0.288-1.488,0.288l-0.16,1.36l-1.68,0l-0.08-2.96s1.808-0.64,3.52-0.64c2.56,0,4.368,0.752,4.368,3.152c0,2.24-1.68,3.92-4.528,6.368l4.8,0l0,1.952l-8.272,0z"/></svg>
