<?xml version="1.0"?>
<svg version="1.1" xmlns="http://www.w3.org/2000/svg" width="250px" height="55px" style=""><path fill="#ffffff" d="M26.748,46.04l0,3.06l-11.448,0l0-3.06l2.7-0.972l-0.864-2.628l-7.992,0l-0.9,2.592l2.808,1.008l0,3.06l-10.872,0l0-3.06l2.628-1.008l7.92-21.204l5.76-0.108l7.74,21.312z M15.948,38.588l-2.7-8.532l-2.844,8.532l5.544,0z M30.69036,49.1l0-3.06l2.7-1.08l0-16.92l-2.7-1.08l0-3.06l9.288-0.18l5.4,11.988l5.652-11.808l8.64-0.18l0,3.24l-2.592,1.08l0,16.92l2.7,1.08l0,3.06l-10.728,0l0-3.06l2.808-1.08l0-13.536l-0.972,2.376l-4.068,8.46l-3.888,0.18l-4.14-8.532l-0.612-1.872l0,12.924l2.772,1.08l0,3.06l-10.26,0z M90.28872,46.04l0,3.06l-11.448,0l0-3.06l2.7-0.972l-0.864-2.628l-7.992,0l-0.9,2.592l2.808,1.008l0,3.06l-10.872,0l0-3.06l2.628-1.008l7.92-21.204l5.76-0.108l7.74,21.312z M79.48872,38.588l-2.7-8.532l-2.844,8.532l5.544,0z M94.05108,45.32l12.78-17.28l-7.56,0l-0.9,3.24l-3.42,0l0-7.56l19.08,0l0,4.068l-12.528,16.992l8.208,0l0.792-3.6l3.42,0l0,7.92l-19.872,0l0-3.78z M131.47344,23.288c7.2,0,11.34,4.752,11.34,12.78c0,8.1-4.86,13.5-12.06,13.5s-11.16-4.5-11.16-12.96c0-8.28,4.572-13.32,11.88-13.32z M131.29344,27.788c-3.6,0-5.58,2.232-5.58,8.64c0,5.94,1.62,8.64,5.22,8.64s5.76-2.34,5.76-8.82c0-5.94-1.8-8.46-5.4-8.46z M148.5558,49.1l0-3.06l2.7-1.08l0-16.92l-2.7-1.08l0-3.06l8.64-0.18l9.72,16.632l0-12.312l-2.628-1.08l0-3.06l10.26-0.18l0,3.24l-2.7,1.08l0,21.06l-6.012,0l-9.648-16.308l0,12.168l2.808,1.08l0,3.06l-10.44,0z"/><path fill="#ffffff" d="M183.44,49.1l0-4.392c7.704-6.228,12.132-9.9,12.132-13.428c0-2.196-1.656-3.6-4.212-3.6c-1.908,0-3.348,0.648-3.348,0.648l-0.36,3.06l-3.78,0l-0.18-6.66s4.068-1.44,7.92-1.44c5.76,0,9.828,1.692,9.828,7.092c0,5.04-3.78,8.82-10.188,14.328l10.8,0l0,4.392l-18.612,0z M208.69436,46.292c0-2.052,1.476-3.24,3.096-3.24c1.98,0,3.024,1.188,3.024,3.24c0,2.088-1.476,3.276-3.096,3.276c-1.98,0-3.024-1.188-3.024-3.276z M231.60872,23.288c7.128,0,9.288,4.572,9.288,12.78c0,8.64-2.88,13.5-9.648,13.5c-6.732,0-9.432-4.608-9.432-12.96c0-8.388,2.7-13.32,9.792-13.32z M231.39272,27.788c-2.736,0-3.744,2.16-3.744,8.64c0,6.3,1.08,8.64,3.744,8.64s3.636-2.34,3.636-8.82c0-6.3-0.864-8.46-3.636-8.46z"/></svg>
