<?xml version="1.0"?>
<svg version="1.1" xmlns="http://www.w3.org/2000/svg" width="400px" height="200px" style=""><path fill="#ff9902" d="M74.232,96.256q-4.032,0-6.768,2.916q-2.7,2.88-2.7,7.02l0,15.408l2.268,0l0-11.304l14.472,0l0,11.304l2.268,0l0-15.408q0-4.14-2.7-7.02q-2.808-2.916-6.84-2.916z M81.504,108.064l-14.472,0l0-1.872q0-3.096,2.088-5.364q2.124-2.304,5.112-2.304t5.184,2.304q2.088,2.268,2.088,5.364l0,1.872z M89.74224,121.528l2.232,0l0-15.228q0-3.024,2.304-5.328t5.328-2.304q2.952,0,5.328,2.304q2.268,2.268,2.268,5.328l0,15.228l2.304,0l0-15.228q0-3.096,2.304-5.328q2.304-2.304,5.292-2.304q3.024,0,5.328,2.304t2.304,5.328l0,15.228l2.232,0l0-15.228q0-4.104-2.88-6.984t-6.984-2.88q-2.7,0-5.076,1.476q-2.412,1.512-3.456,3.852q-1.404-2.412-3.78-3.852q-2.484-1.476-5.184-1.476q-4.068,0-6.948,2.88q-2.916,2.916-2.916,6.984l0,15.228z M141.97248,96.256q-4.032,0-6.768,2.916q-2.7,2.88-2.7,7.02l0,15.408l2.268,0l0-11.304l14.472,0l0,11.304l2.268,0l0-15.408q0-4.14-2.7-7.02q-2.808-2.916-6.84-2.916z M149.24448,108.064l-14.472,0l0-1.872q0-3.096,2.088-5.364q2.124-2.304,5.112-2.304t5.184,2.304q2.088,2.268,2.088,5.364l0,1.872z M172.56672,98.596l-16.236,23.04l20.304,0l0-1.8l-16.236,0l16.236-23.472l-19.872,0l0,2.232l15.804,0z M191.10096,96.4q-4.068,0-6.984,2.916q-2.952,2.952-2.952,7.02l0,5.436q0,3.996,2.952,6.948t6.984,2.952q4.068,0,7.02-2.952q2.916-2.916,2.916-6.948l0-5.436q0-4.104-2.916-7.02t-7.02-2.916z M198.80496,106.336l0,5.436q0,3.276-2.304,5.508q-2.268,2.16-5.4,2.16t-5.364-2.16q-2.304-2.232-2.304-5.508l0-5.436q0-3.024,2.304-5.4q2.304-2.304,5.364-2.304q3.024,0,5.4,2.304q2.304,2.376,2.304,5.4z M206.3232,121.6l2.232,0l0-15.264q0-3.024,2.304-5.4q2.304-2.304,5.328-2.304t5.4,2.304q2.304,2.376,2.304,5.4l0,15.264l2.232,0l0-15.264q0-4.104-2.916-7.02t-7.02-2.916q-4.032,0-6.948,2.916t-2.916,7.02l0,15.264z"/><path fill="#ff9902" d="M255.44,121.6l0-4.392c7.704-6.228,12.132-9.9,12.132-13.428c0-2.196-1.656-3.6-4.212-3.6c-1.908,0-3.348,0.648-3.348,0.648l-0.36,3.06l-3.78,0l-0.18-6.66s4.068-1.44,7.92-1.44c5.76,0,9.828,1.692,9.828,7.092c0,5.04-3.78,8.82-10.188,14.328l10.8,0l0,4.392l-18.612,0z M280.69436,118.792c0-2.052,1.476-3.24,3.096-3.24c1.98,0,3.024,1.188,3.024,3.24c0,2.088-1.476,3.276-3.096,3.276c-1.98,0-3.024-1.188-3.024-3.276z M303.60872,95.788c7.128,0,9.288,4.572,9.288,12.78c0,8.64-2.88,13.5-9.648,13.5c-6.732,0-9.432-4.608-9.432-12.96c0-8.388,2.7-13.32,9.792-13.32z M303.39272,100.288c-2.736,0-3.744,2.16-3.744,8.64c0,6.3,1.08,8.64,3.744,8.64s3.636-2.34,3.636-8.82c0-6.3-0.864-8.46-3.636-8.46z"/></svg>
